# xmcd
#
# Track frame offsets:
#	150
#	13155
#	23322
#	35794
#	46295
#	58048
#	71917
#	81527
#	93972
#	109366
#	118341
#	126808
#	143714
#	153606
#	166036
#
# Disc length: 2341 seconds
#
# Revision: 1
# Processed by: cddbd v1.5.2PL0 Copyright (c) Steve Scherf et al.
# Submitted via: FairStars CD Ripper 1.50
#
DISCID=d109230f
DTITLE=Tennessee Ernie Ford - This Lusty Land
DYEAR=2007
DGENRE=Country
TTITLE0=John Henry
TTITLE1=Trouble In Mind
TTITLE2=Dark As A Dungeon
TTITLE3=False Hearted Girl
TTITLE4=Chicken Road
TTITLE5=Who Will Shoe Your Pretty Little Foot?
TTITLE6=The Rovin' Gambler
TTITLE7=In The Pines
TTITLE8=I Gave My Love A Cherry
TTITLE9=Nine Pound Hammer
TTITLE10=Gaily The Troubadour
TTITLE11=The Last Letter
TTITLE12=You Don't Have To Be A Baby To Cry
TTITLE13=That's All
TTITLE14=First Born
EXTD=
EXTT0=
EXTT1=\n
EXTT2=
EXTT3=
EXTT4=
EXTT5=
EXTT6=
EXTT7=
EXTT8=
EXTT9=
EXTT10=
EXTT11=
EXTT12=
EXTT13=
EXTT14=
PLAYORDER=
